<svg width="31" height="35" viewBox="0 0 31 35" fill="none" xmlns="http://www.w3.org/2000/svg">
<path d="M30.4596 0.540543L27.7462 30.8695L15.5494 34.2432L3.38629 30.8742L0.675781 0.540543H30.4596Z" fill="#A45225"/>
<path d="M15.5679 31.6645L25.4234 28.9382L27.7422 3.02078H15.5679V31.6645Z" fill="#B06A43"/>
<path d="M15.5678 14.2711H6.88965L7.22383 17.9914H15.5678V14.2711Z" fill="#151321"/>
<path d="M15.5679 6.74115H15.555H6.21826L6.55721 10.4615H15.5679V6.74115Z" fill="#151321"/>
<path d="M7.39062 19.8516L7.913 25.693L15.5508 27.8086L15.568 27.8038V23.9331L15.5516 23.9375L11.399 22.8187L11.1336 19.8516H9.11574H7.39062Z" fill="#151321"/>
<path d="M20.1461 17.9914L19.7133 22.8163L15.5547 23.9363V27.8068L23.1986 25.693L23.2546 25.0645L24.1308 15.2701L24.2218 14.2711L24.8949 6.74115H15.5547V10.4615H20.8087L20.4694 14.2711H15.5547V17.9914H20.1461Z" fill="#151321"/>
</svg>