<svg width="22" height="34" viewBox="0 0 22 34" fill="none" xmlns="http://www.w3.org/2000/svg">
<path d="M5.35135 33.2973C8.3053 33.2973 10.7027 30.8999 10.7027 27.9459V22.5946H5.35135C2.39741 22.5946 0 24.992 0 27.9459C0 30.8999 2.39741 33.2973 5.35135 33.2973Z" fill="#A45225"/>
<path d="M0 16.946C0 13.8279 2.39741 11.2973 5.35135 11.2973H10.7027V22.5946H5.35135C2.39741 22.5946 0 20.064 0 16.946Z" fill="#A45225"/>
<path d="M0 5.64865C0 2.53059 2.39741 0 5.35135 0H10.7027V11.2973H5.35135C2.39741 11.2973 0 8.7667 0 5.64865Z" fill="#A45225"/>
<path d="M10.7026 0H16.3513C19.4693 0 21.9999 2.53059 21.9999 5.64865C21.9999 8.7667 19.4693 11.2973 16.3513 11.2973H10.7026V0Z" fill="#A45225"/>
<path d="M21.9999 16.946C21.9999 20.064 19.4693 22.5946 16.3513 22.5946C13.2332 22.5946 10.7026 20.064 10.7026 16.946C10.7026 13.8279 13.2332 11.2973 16.3513 11.2973C19.4693 11.2973 21.9999 13.8279 21.9999 16.946Z" fill="#A45225"/>
</svg>
