<svg width="35" height="35" viewBox="0 0 35 35" fill="none" xmlns="http://www.w3.org/2000/svg">
<path d="M33.3892 15.8911L18.6763 1.17772C18.4751 0.975759 18.2359 0.815511 17.9726 0.706169C17.7093 0.596827 17.427 0.540543 17.1419 0.540543C16.8568 0.540543 16.5744 0.596827 16.3111 0.706169C16.0478 0.815511 15.8087 0.975759 15.6074 1.17772L12.5517 4.23353L16.427 8.10894C16.884 7.95342 17.3754 7.9294 17.8454 8.03962C18.3154 8.14983 18.7449 8.38985 19.0851 8.73232C19.4253 9.07479 19.6625 9.50594 19.7696 9.97664C19.8767 10.4473 19.8494 10.9387 19.6909 11.3946L23.4217 15.1256C23.9794 14.934 24.5859 14.9393 25.1401 15.1406C25.6944 15.3419 26.1629 15.7271 26.4677 16.2319C26.7724 16.7367 26.895 17.3308 26.8149 17.915C26.7349 18.4992 26.4571 19.0384 26.0278 19.4426C25.5985 19.8469 25.0436 20.0918 24.4557 20.1366C23.8677 20.1814 23.2822 20.0234 22.7966 19.6889C22.311 19.3544 21.9547 18.8635 21.787 18.2982C21.6194 17.7328 21.6505 17.1271 21.8752 16.5819L18.3911 13.0976V22.2651C18.9189 22.5266 19.3412 22.961 19.5876 23.496C19.834 24.031 19.8896 24.6343 19.7453 25.2054C19.601 25.7765 19.2653 26.2809 18.7943 26.6346C18.3233 26.9882 17.7453 27.1699 17.1567 27.1492C16.568 27.1285 16.0042 26.9067 15.5592 26.5209C15.1141 26.135 14.8147 25.6083 14.7109 25.0285C14.607 24.4487 14.7048 23.8508 14.9882 23.3344C15.2716 22.818 15.7233 22.4142 16.2681 22.1904V12.9388C15.9529 12.8094 15.6664 12.619 15.4251 12.3785C15.1838 12.1379 14.9925 11.852 14.8622 11.5372C14.7319 11.2224 14.6651 10.8849 14.6658 10.5442C14.6664 10.2035 14.7345 9.86629 14.866 9.552L11.0509 5.73435L0.961981 15.8273C0.759843 16.0286 0.599448 16.2678 0.490003 16.5312C0.380558 16.7947 0.324219 17.0771 0.324219 17.3624C0.324219 17.6477 0.380558 17.9301 0.490003 18.1936C0.599448 18.457 0.759843 18.6962 0.961981 18.8975L15.6748 33.6061C15.8761 33.808 16.1152 33.9683 16.3785 34.0776C16.6418 34.187 16.9242 34.2432 17.2093 34.2432C17.4944 34.2432 17.7767 34.187 18.04 34.0776C18.3033 33.9683 18.5425 33.808 18.7437 33.6061L33.3892 18.9565C33.5913 18.7552 33.7517 18.516 33.8611 18.2526C33.9706 17.9891 34.0269 17.7066 34.0269 17.4214C34.0269 17.1361 33.9706 16.8536 33.8611 16.5902C33.7517 16.3268 33.5913 16.0875 33.3892 15.8863" fill="#A45225"/>
<path d="M12.5515 4.23354L16.4268 8.10895C16.8838 7.95343 17.3753 7.92941 17.8452 8.03963C18.3152 8.14984 18.7448 8.38986 19.085 8.73233C19.4252 9.0748 19.6623 9.50595 19.7694 9.97665C19.8765 10.4474 19.8493 10.9387 19.6907 11.3946L23.4216 15.1256C23.9793 14.934 24.5857 14.9393 25.14 15.1406C25.6942 15.342 26.1628 15.7271 26.4675 16.2319C26.7722 16.7368 26.8948 17.3308 26.8148 17.915C26.7347 18.4992 26.4569 19.0384 26.0276 19.4426C25.5983 19.8469 25.0435 20.0918 24.4555 20.1366C23.8676 20.1815 23.282 20.0234 22.7964 19.6889C22.3108 19.3544 21.9545 18.8635 21.7869 18.2982C21.6192 17.7328 21.6504 17.1271 21.8751 16.5819L18.3909 13.0977V22.2651C18.9187 22.5266 19.341 22.961 19.5874 23.496C19.8338 24.0311 19.8895 24.6344 19.7451 25.2054C19.6008 25.7765 19.2652 26.2809 18.7941 26.6346C18.3231 26.9883 17.7451 27.1699 17.1565 27.1492C16.5678 27.1285 16.004 26.9067 15.559 26.5209C15.114 26.135 14.8146 25.6083 14.7107 25.0285C14.6068 24.4487 14.7047 23.8508 14.988 23.3344C15.2714 22.818 15.7231 22.4143 16.268 22.1904V12.9388C15.9528 12.8095 15.6663 12.619 15.425 12.3785C15.1837 12.138 14.9923 11.852 14.862 11.5372C14.7317 11.2224 14.6649 10.885 14.6656 10.5442C14.6663 10.2035 14.7343 9.8663 14.8659 9.55201L11.0508 5.73436" fill="#151321"/>
</svg>
