<svg width="35" height="35" viewBox="0 0 35 35" fill="none" xmlns="http://www.w3.org/2000/svg">
<path fill-rule="evenodd" clip-rule="evenodd" d="M31.3679 26.8245C29.5345 26.7722 28.1123 26.9647 26.9202 27.4786C26.5769 27.6199 26.0261 27.6199 25.9809 28.0625C26.1643 28.2483 26.1864 28.5523 26.3473 28.8098C26.6222 29.277 27.1041 29.9065 27.5393 30.233L29.0063 31.3073C29.9004 31.8672 30.909 32.1942 31.78 32.7547C32.2845 33.0817 32.7886 33.5019 33.2932 33.8525C33.5501 34.0393 33.7058 34.3433 34.0269 34.4595V34.3888C33.8666 34.1795 33.8204 33.876 33.6606 33.6416L32.972 32.965C32.3077 32.0545 31.4819 31.2602 30.5879 30.6072C29.8541 30.0933 28.25 29.3932 27.9519 28.5298L27.9067 28.4775C28.4103 28.4252 29.0063 28.2436 29.4883 28.1033C30.2683 27.894 30.9784 27.9401 31.78 27.7303L32.8811 27.4032V27.1939C32.4685 26.7737 32.1705 26.2133 31.7353 25.8167C30.5663 24.7895 29.2817 23.7854 27.9519 22.945C27.2413 22.4782 26.3241 22.1742 25.5678 21.7781C25.2919 21.6379 24.8341 21.5678 24.6737 21.3344C24.2601 20.8216 24.0315 20.1439 23.7334 19.5364L21.8539 15.4743C21.4412 14.5638 21.1885 13.6534 20.6849 12.813C18.3234 8.84401 15.7552 6.4396 11.8121 4.08124C10.9643 3.59094 9.95569 3.38007 8.88333 3.12366L7.16406 3.02948C6.79668 2.86622 6.43032 2.42249 6.10918 2.21213C4.80252 1.37177 1.43233 -0.449198 0.46891 1.9505C-0.150251 3.46797 1.38609 4.9619 1.90762 5.73267C2.29813 6.26954 2.80168 6.87653 3.07761 7.48352C3.23175 7.88016 3.28314 8.30086 3.44397 8.72105C3.81032 9.74822 4.15459 10.8926 4.63604 11.8502C4.89296 12.3405 5.16272 12.8548 5.48386 13.2981C5.66729 13.5597 5.98843 13.6717 6.05677 14.0919C5.73563 14.5591 5.71354 15.2587 5.5301 15.8432C4.70438 18.4815 5.02552 21.7499 6.19448 23.6922C6.56186 24.2757 7.42766 25.5603 8.60227 25.0695C9.63403 24.6493 9.40384 23.3186 9.70186 22.1512C9.77123 21.8712 9.72498 21.6844 9.86217 21.4971V21.5494L10.8025 23.4871C11.5131 24.631 12.7514 25.8219 13.7827 26.6162C14.3325 27.0364 14.7682 27.7606 15.4557 28.017V27.9464H15.4105C15.2728 27.7371 15.0662 27.6429 14.8828 27.4796C14.4702 27.0594 14.0118 26.5456 13.6907 26.0788C12.7283 24.7717 11.8805 23.3238 11.1236 21.8299C10.7562 21.1062 10.4351 20.3124 10.1381 19.5888C9.99936 19.3083 9.99937 18.8876 9.77071 18.7484C9.42645 19.2612 8.9229 19.706 8.66958 20.336C8.23386 21.3396 8.18864 22.5771 8.02832 23.8612C7.93584 23.8848 7.97695 23.8612 7.93584 23.9136C7.20312 23.7273 6.95032 22.956 6.67542 22.3029C5.98792 20.6452 5.87282 17.9839 6.46886 16.0693C6.62917 15.579 7.3177 14.038 7.04281 13.5712C6.90407 13.1275 6.44676 12.8711 6.19396 12.5205C5.89594 12.0768 5.57583 11.5169 5.36927 11.0266C4.81948 9.71839 4.54458 8.27156 3.94803 6.96392C3.6721 6.35693 3.19116 5.72639 2.80117 5.1665C2.36544 4.53596 1.88502 4.09223 1.54075 3.34553C1.42617 3.0839 1.26585 2.66842 1.44929 2.38795C1.49451 2.20115 1.587 2.12632 1.7694 2.08446C2.06742 1.82282 2.91626 2.15458 3.21428 2.29377C4.0621 2.64435 4.77272 2.97087 5.48334 3.46065C5.80448 3.69403 6.14875 4.13776 6.56135 4.25497H7.04331C7.77706 4.41823 8.60176 4.30729 9.28874 4.5166C10.5039 4.91428 11.604 5.4972 12.5906 6.12826C15.5934 8.06591 18.07 10.8209 19.7431 14.1133C20.018 14.6502 20.1325 15.1405 20.3853 15.7009C20.8673 16.8453 21.4633 18.0122 21.9438 19.1335C22.4257 20.2308 22.8841 21.3522 23.5716 22.2627C23.9158 22.753 25.2908 23.0094 25.9095 23.2663C26.3683 23.4756 27.0784 23.664 27.4921 23.9204C28.271 24.4107 29.0505 24.9711 29.7837 25.5079C30.1501 25.7874 31.297 26.3713 31.3653 26.837L31.3679 26.8245ZM7.98876 6.53641C7.67202 6.53355 7.35626 6.57278 7.04949 6.6531V6.70542H7.0947C7.27814 7.07903 7.59928 7.33596 7.82845 7.663L8.35615 8.78384L8.40136 8.73151C8.7225 8.49813 8.88333 8.12452 8.88333 7.56462C8.74563 7.40137 8.72302 7.23758 8.60843 7.07432C8.47073 6.84095 8.17271 6.72374 7.98876 6.53745V6.53641Z" fill="#A45225"/>
</svg>
