<svg width="32" height="35" viewBox="0 0 32 35" fill="none" xmlns="http://www.w3.org/2000/svg">
<path d="M14.7967 0.900103C15.6319 0.42177 16.7198 0.419609 17.5543 0.900103C21.7527 3.27364 25.9523 5.64346 30.15 8.01844C30.9395 8.4634 31.4676 9.34253 31.4596 10.2527V24.5329C31.4654 25.4808 30.8852 26.3809 30.0522 26.8158C25.8676 29.1762 21.6853 31.5396 17.5014 33.9C16.6489 34.3877 15.5392 34.3502 14.7133 33.8225C13.4588 33.0948 12.2021 32.3708 10.9475 31.6439C10.6911 31.491 10.4021 31.3692 10.2211 31.1205C10.3811 30.9047 10.6672 30.8778 10.8997 30.7836C11.4234 30.617 11.9044 30.3496 12.3854 30.0901C12.5071 30.0068 12.6556 30.0387 12.7722 30.1132C13.845 30.7286 14.9083 31.3619 15.9846 31.9715C16.2143 32.1041 16.4468 31.928 16.643 31.8185C20.7494 29.4965 24.8607 27.1832 28.9664 24.8604C29.1185 24.7872 29.2026 24.6257 29.1902 24.4589C29.1931 19.7482 29.1909 15.0367 29.1917 10.326C29.2091 10.1368 29.0996 9.96286 28.9287 9.88544C24.7586 7.53579 20.5908 5.18253 16.4215 2.83228C16.3492 2.78259 16.2637 2.75593 16.176 2.7558C16.0883 2.75568 16.0027 2.78208 15.9303 2.83156C11.761 5.18253 7.59383 7.53795 3.42452 9.88748C3.25416 9.96502 3.13983 10.1361 3.1601 10.326C3.16082 15.0367 3.1601 19.7482 3.1601 24.4596C3.15287 24.541 3.17073 24.6226 3.21127 24.6935C3.25181 24.7644 3.31309 24.8211 3.38685 24.8561C4.49945 25.4874 5.61349 26.1142 6.72681 26.7433C7.35401 27.0811 8.1241 27.2818 8.81513 27.023C9.42493 26.8041 9.85239 26.1815 9.84075 25.5337C9.84651 20.8505 9.83787 16.1665 9.84507 11.484C9.82983 11.2761 10.0269 11.1044 10.229 11.1239C10.7636 11.1203 11.2989 11.1167 11.8334 11.1254C12.0566 11.1203 12.2102 11.3442 12.1826 11.5537C12.1804 16.2665 12.1883 20.9795 12.179 25.6924C12.1804 26.9484 11.6647 28.3151 10.5035 28.9297C9.07294 29.6711 7.30483 29.5139 5.89158 28.8029C4.66813 28.192 3.50058 27.4709 2.29884 26.8164C1.46373 26.3839 0.886315 25.4802 0.892193 24.533V10.2527C0.883435 9.32368 1.43254 8.4286 2.24665 7.99011C6.43048 5.62774 10.6136 3.26356 14.7967 0.900103Z" fill="#A45225"/>
<path d="M18.4468 10.7921C20.2715 10.6746 22.225 10.7225 23.867 11.6219C25.1383 12.3111 25.8431 13.7576 25.8656 15.1708C25.8301 15.3614 25.6309 15.4665 25.449 15.4535C24.9196 15.4527 24.3901 15.4607 23.8606 15.4499C23.6361 15.4585 23.5055 15.2513 23.4773 15.0527C23.3252 14.3765 22.9567 13.7068 22.3206 13.3807C21.3442 12.8916 20.212 12.9162 19.1473 12.9264C18.37 12.9677 17.5342 13.035 16.8756 13.4923C16.3701 13.8388 16.2165 14.5381 16.397 15.1013C16.5671 15.5057 17.0336 15.6361 17.4154 15.7564C19.6144 16.3319 21.9447 16.2746 24.1018 17.0319C24.9948 17.3406 25.8685 17.9408 26.1741 18.8763C26.574 20.1302 26.3987 21.6289 25.5071 22.6355C24.7841 23.4639 23.731 23.9147 22.6806 24.1596C21.2833 24.4713 19.8333 24.4792 18.4143 24.3408C17.0799 24.1886 15.6914 23.8379 14.6614 22.9283C13.7805 22.1631 13.3503 20.9708 13.393 19.82C13.4032 19.6257 13.5966 19.4902 13.7827 19.5061C14.3158 19.5018 14.849 19.5004 15.3821 19.5069C15.5951 19.4916 15.753 19.6757 15.7639 19.8766C15.8623 20.5208 16.1042 21.1969 16.6657 21.5789C17.7493 22.2783 19.1089 22.2304 20.3496 22.25C21.3775 22.2044 22.5314 22.1906 23.3702 21.5108C23.8128 21.1231 23.9439 20.4744 23.8243 19.9164C23.6947 19.4453 23.2021 19.2257 22.7791 19.0822C20.6083 18.3951 18.2519 18.6444 16.1021 17.8674C15.2293 17.5588 14.3853 16.9754 14.05 16.0782C13.5821 14.8085 13.7965 13.238 14.7816 12.2654C15.742 11.2979 17.1285 10.9254 18.4468 10.7921Z" fill="#A45225"/>
</svg>