<svg width="49" height="27" viewBox="0 0 49 27" fill="none" xmlns="http://www.w3.org/2000/svg">
<path d="M24.5677 25.335C37.4625 25.335 47.9157 19.9812 47.9157 13.377C47.9157 6.77278 37.4625 1.41901 24.5677 1.41901C11.673 1.41901 1.21973 6.77278 1.21973 13.377C1.21973 19.9812 11.673 25.335 24.5677 25.335Z" fill="#A45225"/>
<path d="M29.2951 17.2416L30.4553 11.2181C30.7189 9.85888 30.4991 8.84615 29.805 8.20634C29.1369 7.58447 28.0036 7.28235 26.3338 7.28235H24.3307L24.9016 4.29734C24.9194 4.18184 24.8932 4.06634 24.8229 3.9776C24.7525 3.88886 24.6473 3.83534 24.5327 3.83534H21.7648C21.5802 3.83534 21.4308 3.96879 21.3956 4.14627L20.1654 10.5427C20.0512 9.82298 19.7788 9.20111 19.3396 8.69475C18.5312 7.75315 17.2393 7.28235 15.5257 7.28235H10.1566C9.97202 7.28235 9.82259 7.4158 9.78742 7.59328L7.29184 20.5372C7.27442 20.6531 7.30055 20.7686 7.3709 20.8573C7.44126 20.9461 7.54646 20.9996 7.66103 20.9996H10.4555C10.64 20.9996 10.7895 20.8658 10.8246 20.6887L11.431 17.5522H13.5048C14.5943 17.5522 15.5083 17.4367 16.2289 17.1969C16.9582 16.9568 17.6346 16.5483 18.2236 15.9888C18.7067 15.5444 19.1024 15.0472 19.4012 14.5052L18.9003 17.0906C18.8826 17.2057 18.9091 17.3216 18.9794 17.41C19.0498 17.4991 19.1553 17.5522 19.2695 17.5522H22.0375C22.2221 17.5522 22.3715 17.4188 22.4067 17.2413L23.7689 10.1342H25.6671C26.4752 10.1342 26.7127 10.2941 26.7744 10.3652C26.836 10.4276 26.959 10.6586 26.8183 11.3604L25.7371 17.0994C25.7194 17.2152 25.7459 17.3304 25.8162 17.4191C25.8866 17.5079 25.9918 17.5614 26.106 17.5614H28.9182C29.1021 17.5526 29.2599 17.4283 29.2951 17.2416ZM16.4654 12.2664C16.2899 13.1724 15.9646 13.8119 15.4898 14.1852C15.0067 14.5584 14.2419 14.7447 13.2053 14.7447H11.9661L12.8626 10.0895H14.4616C15.6392 10.0895 16.1136 10.3473 16.2982 10.5603C16.5622 10.854 16.6239 11.4403 16.4654 12.2664Z" fill="#151321"/>
<path d="M41.1317 8.69509C40.3233 7.75348 39.0315 7.28268 37.3178 7.28268H31.9491C31.7645 7.28268 31.6151 7.41613 31.5799 7.59362L29.0927 20.5467C29.075 20.6619 29.1018 20.7777 29.1718 20.8661C29.2421 20.9552 29.3477 21.0084 29.4616 21.0084H32.2563C32.4409 21.0084 32.59 20.8753 32.6255 20.6975L33.2319 17.5614H35.3057C36.3952 17.5614 37.3091 17.4459 38.0298 17.2057C38.7594 16.9663 39.4358 16.5575 40.0245 15.9979C40.5166 15.5359 40.9297 15.0208 41.2373 14.4609C41.5448 13.9013 41.7643 13.2795 41.8963 12.6129C42.2041 10.9603 41.9492 9.64583 41.1317 8.69509ZM38.2408 12.2664C38.0656 13.1724 37.7403 13.8119 37.2659 14.1852C36.7825 14.5584 36.018 14.7447 34.9811 14.7447H33.7422L34.6383 10.0895H36.2377C37.4153 10.0895 37.8897 10.3473 38.074 10.5603C38.3464 10.854 38.399 11.4403 38.2408 12.2664Z" fill="#151321"/>
</svg>
