<svg width="35" height="35" viewBox="0 0 35 35" fill="none" xmlns="http://www.w3.org/2000/svg">
<path d="M0.324219 0.540543H34.0269V34.2432H0.324219V0.540543Z" fill="#A45225"/>
<path d="M16.5068 13.0211H18.1234V15.8121H13.7526V28.2294L13.6368 28.261C13.4788 28.3032 11.3987 28.3032 10.9511 28.2558L10.593 28.2242V15.8121H6.22217V13.0211L7.60714 13.0053C8.36545 12.9948 10.3139 12.9948 11.9358 13.0053C13.5578 13.0158 15.6115 13.0211 16.5068 13.0211ZM28.8451 26.9129C28.2026 27.5922 27.5128 27.9714 26.3648 28.2821C25.8645 28.419 25.7803 28.4243 24.6533 28.419C23.5264 28.4138 23.4369 28.4137 22.8892 28.2716C21.4726 27.9082 20.3299 27.1973 19.5505 26.1915C19.3294 25.9071 18.966 25.3173 18.966 25.2436C18.966 25.2225 19.0187 25.1751 19.0871 25.1435C19.1556 25.1119 19.2978 25.0224 19.4136 24.954C19.5295 24.8855 19.7401 24.7591 19.8823 24.6854C20.0245 24.6117 20.4352 24.3694 20.7933 24.1535C21.1514 23.9376 21.4779 23.7638 21.5148 23.7638C21.5516 23.7638 21.6201 23.8376 21.6727 23.9271C21.9887 24.4589 22.726 25.1383 23.2473 25.37C23.5685 25.5069 24.2794 25.6596 24.6217 25.6596C24.9377 25.6596 25.517 25.5227 25.8277 25.3805C26.1594 25.2278 26.3279 25.0751 26.528 24.7696C26.665 24.5537 26.6808 24.4958 26.6755 24.0851C26.6755 23.7059 26.6544 23.6006 26.5491 23.4268C26.2542 22.9423 25.854 22.6896 24.232 21.9734C22.5574 21.2309 21.8044 20.7885 21.1935 20.1935C20.7407 19.7511 20.6511 19.63 20.3668 19.077C19.9981 18.3661 19.9507 18.1344 19.9455 17.076C19.9402 16.3334 19.956 16.0912 20.035 15.8384C20.1456 15.4593 20.5037 14.7273 20.6669 14.543C21.004 14.148 21.1251 14.0269 21.3621 13.8321C22.0782 13.2423 23.1946 12.8526 24.2636 12.8157C24.3848 12.8157 24.785 12.8368 25.1589 12.8631C26.2331 12.9526 26.9651 13.2159 27.6708 13.7794C28.2026 14.2007 29.0083 15.1907 28.9294 15.3224C28.8767 15.4013 26.7755 16.8021 26.6386 16.8442C26.5544 16.8706 26.4964 16.839 26.3806 16.7021C25.6644 15.8437 25.3748 15.6594 24.6797 15.6173C24.1847 15.5857 23.9213 15.6436 23.5896 15.8648C23.242 16.0965 23.0735 16.4493 23.0735 16.939C23.0788 17.6552 23.3526 17.9922 24.3637 18.4925C25.0167 18.8137 25.5749 19.077 25.617 19.077C25.6802 19.077 27.0336 19.7511 27.3864 19.9617C29.0294 20.9254 29.6982 21.9154 29.872 23.6216C29.9984 24.9066 29.635 26.0809 28.8451 26.9129Z" fill="#151321"/>
</svg>
