<svg width="35" height="34" viewBox="0 0 35 34" fill="none" xmlns="http://www.w3.org/2000/svg">
<mask id="mask0_61_480" style="mask-type:luminance" maskUnits="userSpaceOnUse" x="0" y="0" width="35" height="34">
<path d="M24.1924 33.8543C24.4638 33.9605 24.7541 34.0095 25.0453 33.9985C25.3364 33.9874 25.6222 33.9164 25.8848 33.7899L32.9083 30.4044C33.2701 30.2297 33.5753 29.9563 33.7887 29.6156C34.0022 29.2748 34.1153 28.8807 34.1151 28.4784V5.52055C34.1151 4.70029 33.6468 3.95241 32.9083 3.5959L25.8848 0.210325C25.4877 0.0190051 25.0411 -0.0439103 24.6068 0.0302899C24.1725 0.10449 23.7719 0.312135 23.4606 0.624474L10.0154 12.9122L4.15842 8.45846C3.89431 8.25739 3.56825 8.15534 3.23686 8.17003C2.90547 8.18472 2.58968 8.31523 2.34433 8.53888L0.466017 10.2518C0.319471 10.3851 0.202326 10.5476 0.122079 10.7289C0.0418328 10.9102 0.000253012 11.1063 1.15109e-06 11.3046C-0.000250709 11.503 0.0408309 11.6992 0.120617 11.8807C0.200402 12.0622 0.317134 12.225 0.463342 12.3587L5.54307 17.0001L0.463342 21.6429C0.317134 21.7766 0.200402 21.9394 0.120617 22.1209C0.0408309 22.3024 -0.000250709 22.4986 1.15109e-06 22.697C0.000253012 22.8953 0.0418328 23.0914 0.122079 23.2727C0.202326 23.454 0.319471 23.6165 0.466017 23.7498L2.34433 25.4614C2.58968 25.685 2.90547 25.8155 3.23686 25.8302C3.56825 25.8449 3.89431 25.7429 4.15842 25.5418L10.0154 21.088L23.4606 33.3785C23.6687 33.5871 23.918 33.7501 24.1924 33.8569V33.8543ZM25.5918 9.24119L15.3895 16.9988L25.5918 24.7591V9.23985V9.24119Z" fill="white"/>
</mask>
<g mask="url(#mask0_61_480)">
<path d="M32.9285 3.60002L25.9009 0.209084C25.5038 0.0179621 25.0573 -0.0448446 24.623 0.0293477C24.1887 0.10354 23.7882 0.311066 23.4768 0.623234L0.466142 21.6416C0.319766 21.7752 0.202827 21.9378 0.122811 22.1192C0.0427955 22.3006 0.00146484 22.4968 0.00146484 22.6951C0.00146484 22.8934 0.0427955 23.0896 0.122811 23.271C0.202827 23.4524 0.319766 23.6151 0.466142 23.7486L2.34713 25.4601C2.85417 25.9212 3.61673 25.956 4.16256 25.5406L31.8717 4.48059C32.081 4.32137 32.3305 4.22385 32.5921 4.19903C32.8537 4.1742 33.1171 4.22305 33.3525 4.34007C33.5879 4.45709 33.786 4.63763 33.9246 4.86137C34.0631 5.0851 34.1365 5.34314 34.1366 5.60643V5.52601C34.1366 4.70441 33.6684 3.95653 32.9285 3.60002Z" fill="#A45225"/>
</g>
<mask id="mask1_61_480" style="mask-type:luminance" maskUnits="userSpaceOnUse" x="0" y="0" width="35" height="34">
<path d="M24.1924 33.8543C24.4638 33.9605 24.7541 34.0095 25.0453 33.9985C25.3364 33.9874 25.6222 33.9164 25.8848 33.7899L32.9083 30.4044C33.2701 30.2297 33.5753 29.9563 33.7887 29.6156C34.0022 29.2748 34.1153 28.8807 34.1151 28.4784V5.52055C34.1151 4.70029 33.6468 3.95241 32.9083 3.5959L25.8848 0.210325C25.4877 0.0190051 25.0411 -0.0439103 24.6068 0.0302899C24.1725 0.10449 23.7719 0.312135 23.4606 0.624474L10.0154 12.9122L4.15842 8.45846C3.89431 8.25739 3.56825 8.15534 3.23686 8.17003C2.90547 8.18472 2.58968 8.31523 2.34433 8.53888L0.466017 10.2518C0.319471 10.3851 0.202326 10.5476 0.122079 10.7289C0.0418328 10.9102 0.000253012 11.1063 1.15109e-06 11.3046C-0.000250709 11.503 0.0408309 11.6992 0.120617 11.8807C0.200402 12.0622 0.317134 12.225 0.463342 12.3587L5.54307 17.0001L0.463342 21.6429C0.317134 21.7766 0.200402 21.9394 0.120617 22.1209C0.0408309 22.3024 -0.000250709 22.4986 1.15109e-06 22.697C0.000253012 22.8953 0.0418328 23.0914 0.122079 23.2727C0.202326 23.454 0.319471 23.6165 0.466017 23.7498L2.34433 25.4614C2.58968 25.685 2.90547 25.8155 3.23686 25.8302C3.56825 25.8449 3.89431 25.7429 4.15842 25.5418L10.0154 21.088L23.4606 33.3785C23.6687 33.5871 23.918 33.7501 24.1924 33.8569V33.8543ZM25.5918 9.24119L15.3895 16.9988L25.5918 24.7591V9.23985V9.24119Z" fill="white"/>
</mask>
<g mask="url(#mask1_61_480)">
<path d="M32.9284 30.399L25.8995 33.7899C25.5024 33.981 25.0558 34.0438 24.6215 33.9697C24.1873 33.8955 23.7867 33.6879 23.4753 33.3758L0.464678 12.3574C0.318301 12.2238 0.201363 12.0612 0.121347 11.8798C0.0413306 11.6984 0 11.5022 0 11.3039C0 11.1056 0.0413306 10.9094 0.121347 10.728C0.201363 10.5466 0.318301 10.3839 0.464678 10.2504L2.34566 8.53887C2.8527 8.07781 3.61526 8.04296 4.1611 8.45845L31.8715 29.5184C32.0808 29.6776 32.3303 29.7751 32.592 29.8C32.8536 29.8248 33.117 29.776 33.3524 29.6589C33.5878 29.5419 33.7859 29.3614 33.9245 29.1376C34.063 28.9139 34.1364 28.6559 34.1365 28.3926V28.473C34.1365 29.2946 33.6682 30.0411 32.9284 30.399Z" fill="#A45225"/>
</g>
<mask id="mask2_61_480" style="mask-type:luminance" maskUnits="userSpaceOnUse" x="0" y="0" width="35" height="34">
<path d="M24.1924 33.8543C24.4638 33.9605 24.7541 34.0095 25.0453 33.9985C25.3364 33.9874 25.6222 33.9164 25.8848 33.7899L32.9083 30.4044C33.2701 30.2297 33.5753 29.9563 33.7887 29.6156C34.0022 29.2748 34.1153 28.8807 34.1151 28.4784V5.52055C34.1151 4.70029 33.6468 3.95241 32.9083 3.5959L25.8848 0.210325C25.4877 0.0190051 25.0411 -0.0439103 24.6068 0.0302899C24.1725 0.10449 23.7719 0.312135 23.4606 0.624474L10.0154 12.9122L4.15842 8.45846C3.89431 8.25739 3.56825 8.15534 3.23686 8.17003C2.90547 8.18472 2.58968 8.31523 2.34433 8.53888L0.466017 10.2518C0.319471 10.3851 0.202326 10.5476 0.122079 10.7289C0.0418328 10.9102 0.000253012 11.1063 1.15109e-06 11.3046C-0.000250709 11.503 0.0408309 11.6992 0.120617 11.8807C0.200402 12.0622 0.317134 12.225 0.463342 12.3587L5.54307 17.0001L0.463342 21.6429C0.317134 21.7766 0.200402 21.9394 0.120617 22.1209C0.0408309 22.3024 -0.000250709 22.4986 1.15109e-06 22.697C0.000253012 22.8953 0.0418328 23.0914 0.122079 23.2727C0.202326 23.454 0.319471 23.6165 0.466017 23.7498L2.34433 25.4614C2.58968 25.685 2.90547 25.8155 3.23686 25.8302C3.56825 25.8449 3.89431 25.7429 4.15842 25.5418L10.0154 21.088L23.4606 33.3785C23.6687 33.5871 23.918 33.7501 24.1924 33.8569V33.8543ZM25.5918 9.24119L15.3895 16.9988L25.5918 24.7591V9.23985V9.24119Z" fill="white"/>
</mask>
<g mask="url(#mask2_61_480)">
<path d="M25.8781 33.7913C25.481 33.9827 25.0343 34.0458 24.5998 33.9718C24.1653 33.8979 23.7644 33.6905 23.4526 33.3785C24.2393 34.1666 25.5851 33.609 25.5851 32.4939V1.50907C25.5851 0.395294 24.2393 -0.163607 23.4526 0.624483C23.7644 0.312423 24.1653 0.105091 24.5998 0.0311413C25.0343 -0.0428086 25.481 0.0202751 25.8781 0.211674L32.9057 3.59724C33.2678 3.77141 33.5733 4.04446 33.7873 4.38495C34.0013 4.72545 34.1149 5.11955 34.1151 5.5219V28.4811C34.1151 29.3013 33.6469 30.0492 32.9071 30.4057L25.8795 33.7913H25.8781Z" fill="#B06A43"/>
</g>
</svg>
