<svg width="32" height="33" viewBox="0 0 32 33" fill="none" xmlns="http://www.w3.org/2000/svg">
<path fill-rule="evenodd" clip-rule="evenodd" d="M9.46988 17.7771L7.7697 16.417C7.47761 17.2955 7.31946 18.2351 7.31946 19.2117C7.31946 24.1 11.2823 28.0629 16.1707 28.0629C21.059 28.0629 25.0219 24.1 25.0219 19.2117C25.0219 18.2351 24.8637 17.2955 24.5716 16.417L22.8714 17.7771C22.97 18.2398 23.0219 18.7196 23.0219 19.2117C23.0219 22.9955 19.9545 26.0629 16.1707 26.0629C12.3868 26.0629 9.31946 22.9955 9.31946 19.2117C9.31946 18.7196 9.37132 18.2397 9.46988 17.7771Z" fill="#A45225"/>
<path d="M16.1707 6.12689L15.546 5.34602L16.1707 4.84627L16.7954 5.34602L16.1707 6.12689ZM17.1707 17.9037C17.1707 18.456 16.723 18.9037 16.1707 18.9037C15.6184 18.9037 15.1707 18.456 15.1707 17.9037L17.1707 17.9037ZM9.00336 10.5802L15.546 5.34602L16.7954 6.90776L10.2527 12.1419L9.00336 10.5802ZM16.7954 5.34602L23.3381 10.5802L22.0887 12.1419L15.546 6.90776L16.7954 5.34602ZM17.1707 6.12689L17.1707 17.9037L15.1707 17.9037L15.1707 6.12689L17.1707 6.12689Z" fill="#A45225"/>
</svg>
