<svg width="32" height="32" viewBox="0 0 33 32" fill="none" xmlns="http://www.w3.org/2000/svg">
<path fill-rule="evenodd" clip-rule="evenodd" d="M16.6768 0.888885C7.89511 0.888885 0.777832 8.00616 0.777832 16.7879C0.777832 23.8095 5.33388 29.7685 11.65 31.8764C12.4425 32.0242 12.7387 31.528 12.7387 31.11C12.7387 30.7268 12.7213 29.481 12.7213 28.1482C8.29569 29.1065 7.36349 26.2751 7.36349 26.2751C6.64058 24.4368 5.59473 23.9492 5.59473 23.9492C4.14829 22.9649 5.69906 22.9823 5.69906 22.9823C7.29331 23.0953 8.13856 24.62 8.13856 24.62C9.55829 27.0508 11.8587 26.3446 12.7648 25.9441C12.9039 24.9162 13.3225 24.2194 13.7752 23.8182C10.247 23.4176 6.52693 22.0494 6.52693 15.96C6.52693 14.2266 7.1455 12.8063 8.16465 11.6915C7.99883 11.2909 7.45913 9.67059 8.32115 7.48386C8.32115 7.48386 9.65393 7.05719 12.6946 9.11288C13.9665 8.76447 15.3254 8.58126 16.6762 8.58126C18.0264 8.58995 19.3858 8.76447 20.6578 9.11288C23.6898 7.05719 25.0225 7.48386 25.0225 7.48386C25.8852 9.67059 25.3449 11.2909 25.179 11.6915C26.1982 12.8069 26.8168 14.2266 26.8168 15.96C26.8168 22.0668 23.0966 23.4083 19.5597 23.8008C20.1261 24.2976 20.6398 25.2646 20.6398 26.7452C20.6398 28.8711 20.6224 30.5871 20.6224 31.11C20.6224 31.5367 20.9099 32.0248 21.7111 31.8764C28.0284 29.7685 32.5758 23.8182 32.5758 16.7879C32.5758 8.00616 25.4585 0.888885 16.6768 0.888885Z" fill="#A45225"/>
</svg>
