<svg width="9" height="9" viewBox="0 0 9 9" fill="none" xmlns="http://www.w3.org/2000/svg">
<path d="M8 1L9 1.00001L9.00001 6.1805e-06L8.00001 2.70629e-08L8 1ZM0.640071 6.88332C0.247712 7.272 0.244729 7.90516 0.63341 8.29752C1.02209 8.68988 1.65525 8.69286 2.04761 8.30418L0.640071 6.88332ZM8.99991 7.49998L9 1.00001L7 0.999986L6.99991 7.49995L8.99991 7.49998ZM8.00001 2.70629e-08L1.49998 -4.00967e-05L1.49997 1.99996L7.99999 2L8.00001 2.70629e-08ZM7.29623 0.28957L0.640071 6.88332L2.04761 8.30418L8.70377 1.71043L7.29623 0.28957Z" fill="#A45225"/>
</svg>
