<svg width="32" height="32" viewBox="0 0 32 32" fill="none" xmlns="http://www.w3.org/2000/svg">
<path d="M16.3334 31.1111C24.9245 31.1111 31.8889 24.1467 31.8889 15.5556C31.8889 6.96446 24.9245 0 16.3334 0C7.74229 0 0.777832 6.96446 0.777832 15.5556C0.777832 24.1467 7.74229 31.1111 16.3334 31.1111Z" fill="#A45225"/>
<path d="M25.6277 16.8073V23.2205H21.9094V17.2371C21.9094 15.7347 21.3726 14.7087 20.0264 14.7087C18.999 14.7087 18.3887 15.3994 18.1191 16.0683C18.0212 16.3073 17.996 16.6392 17.996 16.9745V23.2202H14.2775C14.2775 23.2202 14.3274 13.0863 14.2775 12.0373H17.9963V13.622C17.9888 13.6345 17.9783 13.6467 17.9716 13.6586H17.9963V13.622C18.4904 12.8617 19.3717 11.7747 21.3474 11.7747C23.7936 11.7747 25.6277 13.373 25.6277 16.8073ZM10.3877 6.6467C9.11572 6.6467 8.28357 7.48163 8.28357 8.5786C8.28357 9.65227 9.0916 10.5113 10.3389 10.5113H10.363C11.6599 10.5113 12.4662 9.65227 12.4662 8.5786C12.4416 7.48163 11.6599 6.6467 10.3877 6.6467ZM8.50457 23.2205H12.2217V12.0373H8.50457V23.2205Z" fill="#151321"/>
</svg>
