<svg width="31" height="31" viewBox="0 0 31 31" fill="none" xmlns="http://www.w3.org/2000/svg">
<path fill-rule="evenodd" clip-rule="evenodd" d="M13.6477 15.9381L4.27542 12.814C1.92221 12.0296 0.745605 11.6374 0.745605 10.9167C0.745605 10.1959 1.92221 9.8037 4.27543 9.01929L27.0386 1.43157C28.6944 0.879642 29.5223 0.603677 29.9593 1.04069C30.3963 1.47771 30.1203 2.3056 29.5684 3.96139L21.9807 26.7246C21.1963 29.0778 20.8041 30.2544 20.0833 30.2544C19.3626 30.2544 18.9704 29.0778 18.186 26.7246L15.0619 17.3523L22.5821 9.8321C22.9726 9.44158 22.9726 8.80841 22.5821 8.41789C22.1916 8.02736 21.5584 8.02736 21.1679 8.41789L13.6477 15.9381Z" fill="#A45225"/>
</svg>
