<svg width="32" height="28" viewBox="0 0 38 32" fill="none" xmlns="http://www.w3.org/2000/svg">
<path d="M37.3554 4.02391C35.9534 4.65482 34.4708 5.07189 32.9537 5.26215C34.5543 4.27025 35.7537 2.7098 36.3295 0.870279C34.8254 1.79908 33.1789 2.45347 31.4616 2.80502C30.3136 1.51372 28.785 0.654161 27.1154 0.361154C25.4459 0.0681472 23.7297 0.358266 22.2362 1.18601C20.7427 2.01375 19.5563 3.3323 18.863 4.93486C18.1698 6.53742 18.0089 8.33334 18.4056 10.041C15.3644 9.8814 12.3895 9.05996 9.6743 7.63001C6.95907 6.20005 4.5642 4.19358 2.64527 1.74091C1.97221 2.96013 1.61855 4.34087 1.61944 5.74583C1.61706 7.05059 1.92573 8.33571 2.51798 9.48679C3.11023 10.6379 3.96768 11.6192 5.01398 12.3433C3.79788 12.309 2.60775 11.9705 1.54484 11.3566V11.4533C1.55395 13.2815 2.17151 15.0502 3.29306 16.4604C4.4146 17.8706 5.97127 18.8356 7.69977 19.1923C7.0344 19.4024 6.34359 19.5131 5.64813 19.5212C5.16672 19.5154 4.68651 19.4701 4.21198 19.3858C4.7042 20.9584 5.65675 22.3327 6.93707 23.3175C8.2174 24.3023 9.76182 24.8486 11.3554 24.8805C8.66443 27.0769 5.34203 28.2756 1.91787 28.2856C1.29442 28.2877 0.671465 28.249 0.0527344 28.1695C3.54879 30.5111 7.62295 31.7541 11.7844 31.7488C14.6561 31.7797 17.505 31.2168 20.1647 30.0928C22.8243 28.9688 25.2414 27.3064 27.2747 25.2026C29.308 23.0988 30.9169 20.5957 32.0072 17.8397C33.0976 15.0837 33.6476 12.13 33.6251 9.15098C33.6251 8.82208 33.6251 8.47382 33.6251 8.12557C35.0887 6.99338 36.3509 5.60542 37.3554 4.02391Z" fill="#A45225"/>
</svg>
