<svg width="43" height="43" viewBox="0 0 43 43" fill="none" xmlns="http://www.w3.org/2000/svg">
<path fill-rule="evenodd" clip-rule="evenodd" d="M7.46439 10.3214C6.09448 12.5113 6.09448 15.5075 6.09448 21.5C6.09448 27.4925 6.09448 30.4887 7.46439 32.6786C8.18789 33.8352 9.16488 34.8122 10.3215 35.5357C12.5114 36.9056 15.5076 36.9056 21.5001 36.9056H30.9057C33.7341 36.9056 35.1483 36.9056 36.027 36.0269C36.9057 35.1483 36.9057 33.734 36.9057 30.9056V21.5C36.9057 15.5075 36.9057 12.5113 35.5358 10.3214C34.8123 9.16478 33.8353 8.1878 32.6787 7.46429C30.4888 6.09439 27.4926 6.09439 21.5001 6.09439C15.5076 6.09439 12.5114 6.09439 10.3215 7.46429C9.16488 8.1878 8.18789 9.16478 7.46439 10.3214ZM15.3649 19.7883C15.3649 19.236 15.8126 18.7883 16.3649 18.7883H26.6353C27.1876 18.7883 27.6353 19.236 27.6353 19.7883C27.6353 20.3406 27.1876 20.7883 26.6353 20.7883H16.3649C15.8126 20.7883 15.3649 20.3406 15.3649 19.7883ZM20.5001 26.6352C20.5001 26.0829 20.9478 25.6352 21.5001 25.6352H26.6353C27.1876 25.6352 27.6353 26.0829 27.6353 26.6352C27.6353 27.1875 27.1876 27.6352 26.6353 27.6352H21.5001C20.9478 27.6352 20.5001 27.1875 20.5001 26.6352Z" fill="#151321"/>
</svg>
