<svg width="17" height="17" viewBox="0 0 17 17" fill="none" xmlns="http://www.w3.org/2000/svg">
<path d="M2.8335 2.83333V1.83333H1.8335V2.83333H2.8335ZM7.79306 9.20711C8.18358 9.59763 8.81675 9.59763 9.20727 9.20711C9.59779 8.81658 9.59779 8.18342 9.20727 7.79289L7.79306 9.20711ZM3.8335 7.08333V2.83333H1.8335V7.08333H3.8335ZM2.8335 3.83333H7.0835V1.83333H2.8335V3.83333ZM2.12639 3.54044L7.79306 9.20711L9.20727 7.79289L3.5406 2.12623L2.12639 3.54044Z" fill="#A45225"/>
<path d="M2.8335 14.1667V15.1667H1.8335V14.1667H2.8335ZM7.79306 7.79289C8.18358 7.40237 8.81675 7.40237 9.20727 7.79289C9.59779 8.18341 9.59779 8.81658 9.20727 9.2071L7.79306 7.79289ZM3.8335 9.91666V14.1667H1.8335V9.91666H3.8335ZM2.8335 13.1667H7.0835V15.1667H2.8335V13.1667ZM2.12639 13.4596L7.79306 7.79289L9.20727 9.2071L3.5406 14.8738L2.12639 13.4596Z" fill="#A45225"/>
<path d="M14.1665 2.83333V1.83333H15.1665V2.83333H14.1665ZM9.20694 9.20711C8.81642 9.59763 8.18325 9.59763 7.79273 9.20711C7.40221 8.81658 7.40221 8.18342 7.79273 7.79289L9.20694 9.20711ZM13.1665 7.08333V2.83333H15.1665V7.08333H13.1665ZM14.1665 3.83333H9.9165V1.83333H14.1665V3.83333ZM14.8736 3.54044L9.20694 9.20711L7.79273 7.79289L13.4594 2.12623L14.8736 3.54044Z" fill="#A45225"/>
<path d="M14.1665 14.1667V15.1667H15.1665V14.1667H14.1665ZM9.20694 7.79289C8.81642 7.40237 8.18325 7.40237 7.79273 7.79289C7.40221 8.18341 7.40221 8.81658 7.79273 9.2071L9.20694 7.79289ZM13.1665 9.91666V14.1667H15.1665V9.91666H13.1665ZM14.1665 13.1667H9.9165V15.1667H14.1665V13.1667ZM14.8736 13.4596L9.20694 7.79289L7.79273 9.2071L13.4594 14.8738L14.8736 13.4596Z" fill="#A45225"/>
</svg>
