<svg width="53" height="53" viewBox="0 0 53 53" fill="none" xmlns="http://www.w3.org/2000/svg">
<path fill-rule="evenodd" clip-rule="evenodd" d="M12.0769 22.4815C11.4883 23.7613 11.4883 25.2171 11.4883 28.1289V37.2225C11.4883 41.2663 11.4883 43.2882 12.7445 44.5444C14.0008 45.8007 16.0226 45.8007 20.0664 45.8007H20.1387V35.0781C20.1387 33.3415 21.5465 31.9336 23.2832 31.9336H29.7168C31.4535 31.9336 32.8613 33.3415 32.8613 35.0781V45.8007H32.9336C36.9774 45.8007 38.9992 45.8007 40.2555 44.5444C41.5117 43.2882 41.5117 41.2663 41.5117 37.2225V28.1289C41.5117 25.2171 41.5117 23.7613 40.9231 22.4815C40.3345 21.2018 39.2292 20.2543 37.0184 18.3594L34.8739 16.5212C30.8779 13.0961 28.8799 11.3836 26.5 11.3836C24.1201 11.3836 22.1221 13.0961 18.1261 16.5212L15.9816 18.3594L15.9816 18.3594C13.7708 20.2543 12.6655 21.2018 12.0769 22.4815ZM30.8613 45.8007V35.0781C30.8613 34.446 30.3489 33.9336 29.7168 33.9336H23.2832C22.6511 33.9336 22.1387 34.446 22.1387 35.0781V45.8007H30.8613Z" fill="#151321"/>
</svg>
