<svg width="43" height="43" viewBox="0 0 43 43" fill="none" xmlns="http://www.w3.org/2000/svg">
<path d="M5.77344 10.0234C5.77344 8.13782 5.77344 7.19501 6.35922 6.60922C6.94501 6.02344 7.88782 6.02344 9.77344 6.02344H33.2266C35.1122 6.02344 36.055 6.02344 36.6408 6.60922C37.2266 7.19501 37.2266 8.13782 37.2266 10.0234V33.4766C37.2266 35.3622 37.2266 36.305 36.6408 36.8908C36.055 37.4766 35.1122 37.4766 33.2266 37.4766H9.77344C7.88782 37.4766 6.94501 37.4766 6.35922 36.8908C5.77344 36.305 5.77344 35.3622 5.77344 33.4766V10.0234Z" stroke="#151321" stroke-width="2"/>
<path fill-rule="evenodd" clip-rule="evenodd" d="M33.2266 18.2552H21.4095C20.592 18.2552 20.1832 18.2552 19.8157 18.103C19.4481 17.9507 19.1591 17.6617 18.581 17.0836L15.682 14.1846C15.1039 13.6065 14.8149 13.3175 14.4474 13.1653C14.0798 13.013 13.6711 13.013 12.8536 13.013H5.77344V33.4766C5.77344 35.3622 5.77344 36.305 6.35922 36.8908C6.94501 37.4766 7.88782 37.4766 9.77344 37.4766H33.2266C35.1122 37.4766 36.055 37.4766 36.6408 36.8908C37.2266 36.305 37.2266 35.3622 37.2266 33.4766V14.2552C37.2266 16.1408 37.2266 17.0836 36.6408 17.6694C36.055 18.2552 35.1122 18.2552 33.2266 18.2552ZM12.763 27.7396C12.2107 27.7396 11.763 28.1873 11.763 28.7396C11.763 29.2919 12.2107 29.7396 12.763 29.7396H26.7422C27.2945 29.7396 27.7422 29.2919 27.7422 28.7396C27.7422 28.1873 27.2945 27.7396 26.7422 27.7396H12.763Z" fill="#151321"/>
</svg>
