<svg width="43" height="42" viewBox="0 0 43 42" fill="none" xmlns="http://www.w3.org/2000/svg">
<path fill-rule="evenodd" clip-rule="evenodd" d="M29.4186 5.91072L28.3471 5.91072L8.38281 5.91071C6.49719 5.91071 5.55439 5.91071 4.9686 6.4965C4.38281 7.08229 4.38281 8.02509 4.38281 9.91071V36.7219L9.51802 35.0102L14.6532 36.7219L19.7884 35.0102L24.7545 36.6655L24.9236 19.605V10.4107C24.9236 7.9271 26.9356 5.91342 29.4186 5.91072ZM38.3292 19.6046V10.4107C38.3292 9.03 37.21 7.91071 35.8292 7.91071H29.4236C28.0429 7.91071 26.9236 9.03 26.9236 10.4107V19.6046L38.3292 19.6046ZM8.51802 12.7577C8.51802 12.2054 8.96573 11.7577 9.51802 11.7577H19.7884C20.3407 11.7577 20.7884 12.2054 20.7884 12.7577C20.7884 13.3099 20.3407 13.7577 19.7884 13.7577H9.51802C8.96573 13.7577 8.51802 13.3099 8.51802 12.7577ZM8.51802 19.6046C8.51802 19.0523 8.96573 18.6046 9.51802 18.6046H12.9415C13.4938 18.6046 13.9415 19.0523 13.9415 19.6046C13.9415 20.1569 13.4938 20.6046 12.9415 20.6046H9.51802C8.96573 20.6046 8.51802 20.1569 8.51802 19.6046ZM8.51802 26.4515C8.51802 25.8992 8.96573 25.4515 9.51802 25.4515H16.365C16.9172 25.4515 17.365 25.8992 17.365 26.4515C17.365 27.0038 16.9172 27.4515 16.365 27.4515H9.51802C8.96573 27.4515 8.51802 27.0038 8.51802 26.4515Z" fill="#151321"/>
</svg>
