<svg width="38" height="31" viewBox="0 0 38 31" fill="none" xmlns="http://www.w3.org/2000/svg">
<path fill-rule="evenodd" clip-rule="evenodd" d="M7.76903 16.0319C7.6028 15.9488 7.40723 16.0697 7.40723 16.2555V23.9824C7.40723 23.9824 7.40723 30.9521 19.0234 30.9521C30.6396 30.9521 30.6396 23.9824 30.6396 23.9824V16.2555C30.6396 16.0697 30.4441 15.9488 30.2778 16.0319L19.4707 21.4355C19.1891 21.5763 18.8578 21.5763 18.5762 21.4355L7.76903 16.0319Z" fill="#151321"/>
<path d="M1.33193 9.59576L18.7998 0.861803C18.9406 0.791422 19.1063 0.791421 19.247 0.861803L36.715 9.59576C37.0835 9.78002 37.0835 10.3059 36.715 10.4902L19.247 19.2241C19.1063 19.2945 18.9406 19.2945 18.7998 19.2241L1.33193 10.4902C0.963403 10.3059 0.963402 9.78002 1.33193 9.59576Z" fill="#151321"/>
</svg>
